<svg id="Layer_1" data-name="Layer 1" xmlns="http://www.w3.org/2000/svg" viewBox="0 0 1366 768"><defs><style>.cls-1,.cls-3,.cls-6,.cls-7{fill:none;stroke-miterlimit:10;}.cls-1{stroke:#8dd1c5;stroke-width:7.6px;}.cls-2{fill:#99d5cc;}.cls-3{stroke:#518c8b;}.cls-3,.cls-7{stroke-width:7.06px;}.cls-4{fill:#4e4e4f;}.cls-5{fill:#518c8b;}.cls-6,.cls-7{stroke:#4e4e4f;}.cls-6{stroke-width:0.88px;}</style></defs><title>Cloud Services</title><ellipse class="cls-1" cx="705.87" cy="425.07" rx="289.32" ry="288.07"/><path class="cls-2" d="M779.18,319.69a46.05,46.05,0,1,0-84.83,24.84h0s17.75,28.3,18.7,37.27h40.22c.94-9,18.7-37.27,18.7-37.27h-.07A45.82,45.82,0,0,0,779.18,319.69Z"/><path class="cls-3" d="M747,379.09c.63-12.45,2.27-30.77,6.44-45.6,2.37-8.43-2.11-6.85-11.85,2.9,0,0-1-8.36-8.68-8.36h.26c-7.63,0-8.68,8.36-8.68,8.36-9.74-9.74-14.22-11.32-11.85-2.9,4.26,15.14,5.87,33.9,6.48,46.35"/><rect class="cls-4" x="705.75" y="374.82" width="54.24" height="8.16"/><rect class="cls-4" x="705.75" y="389.3" width="54.24" height="8.16"/><rect class="cls-4" x="714.96" y="402.99" width="35.81" height="8.16"/><path class="cls-5" d="M564.66,478.08c.26,0,.52,0,.78,0a37.19,37.19,0,0,1,52.8-41,58.09,58.09,0,0,1,116.18.54c0,1.22-.05,2.43-.12,3.63a36.77,36.77,0,0,1-2.51,73.42v0H564.66a18.32,18.32,0,0,1,0-36.64Z"/><polygon class="cls-2" points="637.36 445.62 692.87 515.4 656.39 515.4 669.61 558.76 611.98 488.97 652.42 488.97 637.36 445.62"/><path class="cls-4" d="M654.95,433.9a64.74,64.74,0,0,1,64.66,64.66v5.65l.94,1.64,16.06,27.85h-12v36.59c0,6.18-2.41,8.49-4.23,9.7-2.59,1.72-6.51,2.63-11.32,2.63H674v25.64H609.26V547.57l.17-2.85-1.86-2.16c-11.31-13.15-17.28-28.36-17.28-44a64.74,64.74,0,0,1,64.67-64.66m0-7.06a71.73,71.73,0,0,0-71.73,71.72c0,18.75,7.54,35.28,19,48.6l0,.36v67.8H681V589.68h28c10.46,0,22.61-3.69,22.61-19.39V540.77h17.2l-22.17-38.44v-3.76a71.72,71.72,0,0,0-71.72-71.72Z"/><line class="cls-6" x1="343.58" y1="339.26" x2="343.58" y2="342.43"/><line class="cls-7" x1="652.2" y1="342.6" x2="677.48" y2="342.6"/><line class="cls-7" x1="823.25" y1="340.6" x2="848.52" y2="340.6"/><line class="cls-6" x1="333.3" y1="343.5" x2="335.54" y2="345.74"/><line class="cls-7" x1="796.78" y1="404.51" x2="814.65" y2="422.38"/><line class="cls-6" x1="351.55" y1="345.78" x2="353.78" y2="343.55"/></svg>