<svg id="Layer_1" data-name="Layer 1" xmlns="http://www.w3.org/2000/svg" viewBox="0 0 1366 768"><defs><style>.cls-1{fill:none;stroke:#5a879d;stroke-miterlimit:10;stroke-width:7.6px;}.cls-2{fill:#231f20;}.cls-3{fill:#57c1b0;}.cls-4{fill:#020202;}.cls-5{fill:#67c9d5;}.cls-6{fill:#4e4e4f;}.cls-7{fill:#518c8b;}</style></defs><title>Consulting</title><ellipse class="cls-1" cx="634.8" cy="405" rx="289.25" ry="288"/><rect class="cls-2" x="641.56" y="550.65" width="11.96" height="70.86"/><rect class="cls-2" x="513.8" y="587.33" width="95.15" height="11.96" transform="translate(-219.08 834.25) rotate(-63.74)"/><rect class="cls-2" x="728.41" y="545.74" width="11.96" height="95.15" transform="translate(-186.72 386.18) rotate(-26.26)"/><path class="cls-3" d="M777.12,248.5V550.65H518V248.5H777.12m19.13-19.13H498.83V569.78H796.25V229.37Z"/><path class="cls-2" d="M780.71,554.24H514.37V244.92H780.71Zm-259.16-7.18h252v-295h-252Z"/><rect class="cls-2" x="496.91" y="244.92" width="302.57" height="7.17"/><rect class="cls-2" x="496.91" y="547.06" width="302.57" height="7.18"/><path class="cls-2" d="M695.2,252.09h-94V223.25h94Zm-86.83-7.17H688V230.43H608.37Z"/><rect class="cls-2" x="644.61" y="206.91" width="7.17" height="19.93"/><path class="cls-4" d="M647.52,448.56c-.78,0-1.57,0-2.36,0l.13-4.68c1.14,0,2.28,0,3.42,0l.07,4.68Zm8.45-.39-.44-4.66c1.13-.11,2.26-.24,3.39-.39l.62,4.64C658.36,447.91,657.17,448,656,448.17Zm-18-.11q-1.79-.19-3.58-.46l.69-4.63c1.12.17,2.25.32,3.39.44Zm28.66-1.56-1-4.57c1.11-.24,2.21-.51,3.32-.79l1.18,4.53Q668.4,446.11,666.64,446.49Zm-39.32-.23c-1.17-.28-2.34-.57-3.49-.89l1.23-4.51c1.1.3,2.2.58,3.31.84ZM677,443.57l-1.54-4.42q1.62-.56,3.21-1.18l1.7,4.36C679.32,442.76,678.18,443.18,677,443.57ZM617,443.2c-1.13-.41-2.25-.84-3.36-1.29l1.77-4.33q1.58.64,3.18,1.23ZM687,439.44l-2-4.21q1.54-.75,3-1.56l2.21,4.12C689.17,438.36,688.11,438.91,687,439.44Zm-80-.51c-1.08-.54-2.13-1.1-3.19-1.69l2.27-4.09c1,.56,2,1.09,3,1.6Zm89.4-4.78-2.54-3.93c1-.62,1.9-1.25,2.83-1.91l2.7,3.83Q698,433.17,696.44,434.14Zm-98.74-.64q-1.5-1-3-2.05l2.74-3.79c.93.67,1.86,1.31,2.81,1.94Zm107.45-5.76-3-3.59q1.31-1.1,2.58-2.23l3.14,3.48C707,426.2,706.07,427,705.15,427.75ZM589.07,427q-1.37-1.16-2.69-2.38l3.17-3.44q1.26,1.16,2.56,2.26Zm124-6.65-3.4-3.21c.79-.83,1.55-1.67,2.29-2.53l3.53,3.08Q714.26,419.05,713,420.36Zm-131.74-.82q-1.22-1.32-2.39-2.69l3.57-3c.73.87,1.49,1.72,2.26,2.55Zm138.67-7.46-3.76-2.78q1-1.37,2-2.78l3.87,2.63C721.36,410.13,720.66,411.12,719.95,412.08Zm-145.5-.9c-.7-1-1.38-2-2-3l3.9-2.58q.94,1.43,1.94,2.81ZM725.84,403l-4.07-2.32q.84-1.48,1.63-3l4.15,2.15Q726.73,401.46,725.84,403Zm-157.17-1q-.87-1.57-1.68-3.19l4.19-2.09c.51,1,1,2,1.59,3Zm161.95-8.7-4.31-1.82c.44-1,.86-2.1,1.26-3.17l4.38,1.64C731.52,391.12,731.08,392.24,730.61,393.34Zm-166.58-1c-.45-1.11-.88-2.23-1.29-3.36l4.41-1.58c.38,1.08.79,2.14,1.22,3.19Zm170.17-9.14-4.5-1.28q.47-1.64.87-3.31l4.55,1.11Q734.7,381.42,734.2,383.15Zm-173.62-1.09c-.32-1.17-.61-2.33-.88-3.49l4.56-1.05q.38,1.66.83,3.32Zm176-9.46-4.62-.74c.18-1.12.34-2.25.47-3.39L737,369C736.9,370.23,736.74,371.42,736.55,372.6Zm-178.19-1.12c-.17-1.19-.33-2.38-.45-3.57l4.65-.5c.13,1.13.27,2.26.44,3.39Zm179.25-9.63-4.68-.18q.06-1.62.06-3.23v-.2h4.68v.17C737.67,359.58,737.65,360.72,737.61,361.85Zm-180.18-1.13q0-1.15,0-2.31c0-.43,0-.86,0-1.3l4.68.07c0,.41,0,.82,0,1.22q0,1.09,0,2.19Zm175.28-9.29c-.09-1.13-.21-2.26-.35-3.39l4.64-.57c.15,1.19.27,2.39.37,3.58Zm-170.25-1.06-4.66-.44q.17-1.8.41-3.59l4.64.63C562.7,348.09,562.57,349.23,562.46,350.37Zm168.79-9.07q-.35-1.67-.76-3.33l4.54-1.12q.44,1.76.79,3.51Zm-167.2-1-4.57-1c.26-1.17.54-2.35.84-3.51l4.52,1.18C564.56,338,564.29,339.13,564,340.24Zm2.78-9.86-4.42-1.54q.59-1.7,1.26-3.38l4.35,1.71Q567.39,328.77,566.83,330.39Zm3.94-9.46-4.2-2.05q.79-1.63,1.64-3.2l4.12,2.22Q571.52,319.39,570.77,320.93Zm5-8.92-3.93-2.54q1-1.51,2-3l3.83,2.69C577.06,310.11,576.43,311.05,575.81,312Zm6.06-8.25-3.6-3q1.16-1.38,2.36-2.72l3.48,3.14C583.34,302,582.59,302.88,581.87,303.76Zm7-7.47-3.22-3.4c.87-.82,1.76-1.63,2.66-2.42l3.08,3.53Q590.11,295.12,588.87,296.29Zm7.84-6.57L593.94,286q1.43-1.07,2.93-2.08l2.63,3.87Q598.09,288.71,596.71,289.72Zm8.58-5.57L603,280.08q1.56-.89,3.17-1.71l2.14,4.16C607.28,283,606.28,283.58,605.29,284.15Zm9.19-4.51-1.8-4.32c1.1-.46,2.21-.9,3.35-1.32l1.64,4.39Q616.06,279,614.49,279.64Z"/><path class="cls-4" d="M647.56,404.41A45.92,45.92,0,1,1,662,402.06,45.91,45.91,0,0,1,647.56,404.41Zm0-87.29a41.34,41.34,0,1,0,39.16,28.3A41.21,41.21,0,0,0,647.52,317.12Z"/><path class="cls-3" d="M574.52,373.31a74.5,74.5,0,0,1,44.57-83.76l5.35,13a60.45,60.45,0,0,0-36.17,68Z"/><path class="cls-5" d="M647.46,433a74.37,74.37,0,0,1-67.55-43.24l12.75-5.88A60.47,60.47,0,0,0,705.85,342.4l13.54-3.73A74.59,74.59,0,0,1,647.46,433Z"/><path class="cls-4" d="M733,330a90,90,0,0,0-113.91-57.1l11.2,33.7a54.45,54.45,0,0,1,56.62,14.1l0,.07.22.11a54.54,54.54,0,0,1,12.16,20.34Zm-26.91,2.77,11-21.9a84.39,84.39,0,0,1,8.34,15.48Zm7.08-27.17L700.9,330.18a60.13,60.13,0,0,0-6.94-10.4l11.37-22.7A83.53,83.53,0,0,1,713.22,305.62Zm-29.33-23.26L673.19,303.7a60.22,60.22,0,0,0-13.7-4.53l11-21.86A83.28,83.28,0,0,1,683.88,282.37Zm-57.29-5.55A83.79,83.79,0,0,1,646,274.17l-12.2,24.34Zm13.81,21.59,12.08-24.1a84.38,84.38,0,0,1,12.14,1.6L653.4,298.27c-1.94-.19-3.91-.3-5.9-.3A60.62,60.62,0,0,0,640.4,298.41Zm38,8,10.72-21.37a83.41,83.41,0,0,1,11.72,8l-11.07,22.08A60.59,60.59,0,0,0,678.36,306.45Z"/><path class="cls-2" d="M648.91,334.19v4.46c2.48.05,11.69.39,11.91,9H655c-.11-3.53-2.92-4.46-6.18-4.57v11.52c5.63,1.54,12.52,3.63,12.52,11.35a10.67,10.67,0,0,1-5,9.1c-2.53,1.65-5.73,1.93-7.66,2.09v5.46h-2.81v-5.46c-2.43-.06-5.85-.11-9.15-3.09-2.87-2.59-3.09-5.29-3.09-7.66h5.62c-.11,2.42,1.32,6,6.62,6.06v-12.9c-9-2.7-11.52-5-11.52-10.92a9.45,9.45,0,0,1,4.68-8.27,14.41,14.41,0,0,1,7-1.71v-4.52ZM646,343.12c-6,.61-6.17,4.19-6.17,5.18,0,3.7,3.47,4.74,6.17,5.51Zm2.81,29.38c4.8-.05,6.79-3.14,6.79-5.84,0-4.13-4-5.45-6.79-6.34Z"/><rect class="cls-6" x="540.32" y="477.22" width="21.05" height="51.17"/><rect class="cls-7" x="571.9" y="498.16" width="21.05" height="30.23"/><rect class="cls-3" x="604.79" y="513.27" width="21.05" height="15.12"/><circle class="cls-4" cx="731.13" cy="500.42" r="21.05"/><circle class="cls-5" cx="682.42" cy="500.42" r="21.05"/><rect class="cls-4" x="540.32" y="462.64" width="215.11" height="3.59"/><rect class="cls-4" x="645.75" y="471.79" width="3.58" height="56.6"/></svg>