<svg id="Layer_1" data-name="Layer 1" xmlns="http://www.w3.org/2000/svg" viewBox="0 0 1366 768"><defs><style>.cls-1{fill:#4e4e4f;}.cls-2{fill:#57c1b0;}.cls-3{fill:#fff;}</style></defs><title>Artboard 1</title><rect class="cls-1" x="531.42" y="192.63" width="290" height="275.51"/><path class="cls-2" d="M827,473.76H525.8V187H827ZM539.86,459.7H813V201.06H539.86Z"/><path class="cls-2" d="M764,265.14,679,431.21h-11.3L587.91,265.14ZM618.69,283,679,407.35h5L747.86,283Z"/><path class="cls-3" d="M736,384.75h6.37v40.74H764v5.73H736Z"/><path class="cls-2" d="M733.49,239.09H616.83a3.19,3.19,0,1,1,0-6.38H733.49a3.19,3.19,0,1,1,0,6.38Z"/><path class="cls-2" d="M726.07,250.43a3.19,3.19,0,0,1-3.19-3.19c0-2.2,1.54-6.34,10.72-11.35-5.35-2.93-10.72-7-10.72-11.33a3.19,3.19,0,0,1,6.37-.08c.51,1.72,6.75,5.83,12.92,8.49l6.77,2.93-6.77,2.93c-6.29,2.72-12.41,6.74-12.92,8.48A3.19,3.19,0,0,1,726.07,250.43Z"/><path class="cls-1" d="M586.52,555.77c-.55-10.31-1.21-22.7-1.1-31.92h-.33c-2.52,8.67-5.59,17.88-9.32,28.08L562.72,587.8h-7.24l-12-35.21c-3.51-10.42-6.47-20-8.56-28.74h-.22c-.22,9.21-.77,21.61-1.43,32.68l-2,31.7h-9.1l5.16-73.92h12.17l12.61,35.76c3.07,9.1,5.59,17.22,7.46,24.9H560c1.86-7.46,4.5-15.57,7.79-24.9l13.16-35.76H593.1l4.61,73.92h-9.32Z"/><path class="cls-1" d="M633.46,563.45c.22,13.05,8.56,18.43,18.21,18.43a34.9,34.9,0,0,0,14.7-2.74L668,586c-3.4,1.54-9.21,3.29-17.66,3.29-16.34,0-26.1-10.75-26.1-26.76s9.43-28.63,24.9-28.63c17.33,0,21.94,15.25,21.94,25a36.47,36.47,0,0,1-.33,4.5Zm28.3-6.91c.11-6.14-2.52-15.68-13.38-15.68-9.76,0-14,9-14.81,15.68Z"/><path class="cls-1" d="M698.39,549.52c0-5.48-.11-10-.44-14.37h8.56l.55,8.77h.22c2.63-5,8.77-10,17.55-10,7.35,0,18.76,4.39,18.76,22.59v31.7h-9.65v-30.6c0-8.56-3.18-15.68-12.28-15.68a13.71,13.71,0,0,0-12.94,9.87,13.88,13.88,0,0,0-.66,4.5v31.92h-9.65Z"/><path class="cls-1" d="M819,573.76c0,5.48.11,10.31.44,14.48h-8.55l-.55-8.66h-.22a20,20,0,0,1-17.55,9.87c-8.34,0-18.32-4.61-18.32-23.25v-31h9.65v29.39c0,10.09,3.07,16.89,11.85,16.89a14,14,0,0,0,12.72-8.77,14.12,14.12,0,0,0,.88-4.94V535.15H819Z"/></svg>