<svg id="Layer_1" data-name="Layer 1" xmlns="http://www.w3.org/2000/svg" viewBox="0 0 1200 1142.29"><defs><style>.cls-1{fill:#fff;}</style></defs><title>tumbnail</title><rect class="cls-1" x="22.4" y="22.4" width="1155.21" height="1097.49"/><path d="M1200,1142.29H0V0H1200Zm-1144-56H1144V56H56Z"/><path d="M948.91,311.29,610.39,972.79h-45L247.44,311.29ZM370,382.24l240.29,495.5h20l254.24-495.5Z"/><path d="M837.41,787.73h25.35V950h86.14v22.78H837.41Z"/><path d="M827.34,207.48H362.64a12.69,12.69,0,1,1,0-25.38h464.7a12.69,12.69,0,1,1,0,25.38Z"/><path d="M797.77,252.67A12.69,12.69,0,0,1,785.08,240c0-8.81,6.14-25.27,42.69-45.2-21.3-11.69-42.69-27.75-42.69-45.17a12.7,12.7,0,0,1,25.4-.3c2,6.85,26.88,23.21,51.46,33.81l27,11.65-27,11.67c-25,10.85-49.42,26.88-51.46,33.83A12.71,12.71,0,0,1,797.77,252.67Z"/></svg>