<svg id="Layer_1" data-name="Layer 1" xmlns="http://www.w3.org/2000/svg" viewBox="0 0 1200 1142.29"><defs><style>.cls-1{fill:#4e4e4f;}.cls-2{fill:#57c1b0;}.cls-3{fill:#fff;}</style></defs><title>Untitled-1</title><rect class="cls-1" x="22.4" y="22.4" width="1155.21" height="1097.5"/><path class="cls-2" d="M1200,1142.29H0V0H1200Zm-1144-56H1144V56H56Z"/><path class="cls-2" d="M948.91,311.3,610.38,972.8h-45L247.43,311.3ZM370,382.25l240.3,495.5h20l254.23-495.5Z"/><path class="cls-3" d="M837.4,787.74h25.37V950h86.14V972.8H837.4Z"/><path class="cls-2" d="M827.34,207.49H362.63a12.69,12.69,0,1,1,0-25.38H827.34a12.69,12.69,0,1,1,0,25.38Z"/><path class="cls-2" d="M797.78,252.67A12.7,12.7,0,0,1,785.08,240c0-8.81,6.14-25.27,42.7-45.2-21.31-11.69-42.7-27.76-42.7-45.17a12.7,12.7,0,0,1,25.4-.3c2,6.85,26.88,23.21,51.46,33.81l27,11.65-27,11.67c-25,10.85-49.43,26.88-51.46,33.83A12.7,12.7,0,0,1,797.78,252.67Z"/></svg>