<?xml version="1.0" encoding="utf-8"?>
<!-- Generator: Adobe Illustrator 21.1.0, SVG Export Plug-In . SVG Version: 6.00 Build 0)  -->
<svg version="1.1" id="Layer_1" xmlns="http://www.w3.org/2000/svg" xmlns:xlink="http://www.w3.org/1999/xlink" x="0px" y="0px"
	 viewBox="0 0 1200 287.5" style="enable-background:new 0 0 1200 287.5;" xml:space="preserve">
<style type="text/css">
	.st0{fill:#4E4E4F;}
	.st1{fill:#57C1B0;}
	.st2{fill:#FFFFFF;}
</style>
<g>
	<g>
		<path class="st0" d="M366.5,202.5h8.5v54.6h29v7.7h-37.5V202.5z"/>
		<path class="st0" d="M450.7,202.5h9.2l25.2,62.3h-9.4l-6.7-16.2h-28.9l-6.7,16.2h-8.9L450.7,202.5z M442.8,241.5h23.6L454.9,211
			L442.8,241.5z"/>
		<path class="st0" d="M511.3,202.5h22.3c7.6,0,11.8,0.8,15.7,4.6c2.7,2.6,4.4,6.2,4.4,11.1c0,10.3-7.5,12.9-10.5,14.1
			c3.6,1,12.4,3.6,12.4,15.5c0,8.5-5.4,12.8-7.5,14.1c-4.3,2.8-9.1,2.8-14.1,2.8h-22.7V202.5z M519.7,228.8h12.1
			c2.9,0,12.9,0,12.9-9.8c0-9.4-7.9-9.4-12.6-9.4h-12.4V228.8z M519.7,257.7h14.8c6.8,0,12.2-3.6,12.2-10.8
			c0-6.2-4.3-10.8-11.9-10.8h-15.1V257.7z"/>
		<path class="st0" d="M590.9,209.2c6.5-7,15-8.4,20.8-8.4c17.2,0,28.1,11,28.1,32.2c0,16.6-6.6,33.2-28.8,33.2
			c-21.2,0-28.1-15.1-28.1-32.2C582.9,226.9,584.1,216.5,590.9,209.2z M597.5,253.1c3.5,4.4,8.9,5.7,13.8,5.7
			c5.1,0,10.2-1.4,13.8-5.7c5.1-6.2,5.6-16,5.6-20.3c0-14.1-4.7-24.8-18.9-24.8c-15.8,0-19.8,12.7-19.8,25.5
			C592,240.3,593.2,247.8,597.5,253.1z"/>
		<path class="st0" d="M669.5,202.5h22.2c3.2,0,9.8,0,14.3,2.9c4.7,2.9,6.9,7.7,6.9,12.7c0,4.4-1.6,8.3-4.4,11
			c-2.7,2.7-5.4,3.6-7.3,4c5.9,1.6,8.6,4.2,9.5,12c0.9,7.4,1.5,12.7,3.9,19.6h-9.2c-1.4-4.1-2.2-11.7-2.8-16.5
			c-1-9.1-3.2-11.6-13.6-11.6h-10.9v28.1h-8.5V202.5z M677.9,229.3h13.6c1,0,5.9,0,8.2-1.4c1.2-0.7,4.2-2.9,4.2-8.1
			c0-10.1-9-10.1-12.4-10.1h-13.6V229.3z"/>
		<path class="st0" d="M763.8,202.5h9.2l25.2,62.3h-9.4l-6.7-16.2h-28.9l-6.7,16.2h-8.9L763.8,202.5z M756,241.5h23.6L768,211
			L756,241.5z"/>
		<path class="st0" d="M832.5,264.7v-54.9h-20.9v-7.3h50.3v7.3H841v54.9H832.5z"/>
		<path class="st0" d="M889.4,209.2c6.5-7,15-8.4,20.8-8.4c17.2,0,28.1,11,28.1,32.2c0,16.6-6.7,33.2-28.8,33.2
			c-21.2,0-28.1-15.1-28.1-32.2C881.3,226.9,882.6,216.5,889.4,209.2z M895.9,253.1c3.5,4.4,8.9,5.7,13.8,5.7
			c5.1,0,10.2-1.4,13.8-5.7c5.1-6.2,5.6-16,5.6-20.3c0-14.1-4.7-24.8-18.9-24.8c-15.8,0-19.8,12.7-19.8,25.5
			C890.4,240.3,891.6,247.8,895.9,253.1z"/>
		<path class="st0" d="M968,202.5h22.3c3.2,0,9.8,0,14.3,2.9c4.7,2.9,6.9,7.7,6.9,12.7c0,4.4-1.6,8.3-4.4,11c-2.7,2.7-5.4,3.6-7.3,4
			c5.9,1.6,8.6,4.2,9.5,12c0.9,7.4,1.5,12.7,3.9,19.6h-9.2c-1.4-4.1-2.2-11.7-2.8-16.5c-1-9.1-3.2-11.6-13.6-11.6h-10.9v28.1H968
			V202.5z M976.3,229.3H990c0.9,0,5.9,0,8.2-1.4c1.2-0.7,4.2-2.9,4.2-8.1c0-10.1-9-10.1-12.4-10.1h-13.6V229.3z"/>
		<path class="st0" d="M1042.8,202.5h8.6v62.3h-8.6V202.5z"/>
		<path class="st0" d="M1083,202.5h39.1v7.3h-30.5v19.4h29v7.2h-29v20.7h31.1v7.6H1083V202.5z"/>
		<path class="st0" d="M1160.1,246.5c0.2,4.3,0.7,12.3,15,12.3c12.9,0,14.6-8,14.6-11.1c0-7-5.6-8.4-14.3-10.5
			c-9.5-2.3-13.7-3.4-16.9-5.5c-5.1-3.4-6.5-8.1-6.5-12.3c0-12.7,12-18.2,23.7-18.2c4.1,0,12.5,0.7,17.5,6.1c3.5,3.8,3.6,8,3.8,10.6
			h-9c-0.4-7.8-7-9.5-13.1-9.5c-8.6,0-13.8,3.9-13.8,10.1c0,5.5,3.6,7.4,11.2,9.2c14.8,3.8,16.5,4.1,20.1,6.6
			c5.8,3.8,6.2,9.8,6.2,12.4c0,11.1-8.6,19.4-24.6,19.4c-4.7,0-14.4-0.8-19.3-7.1c-3.5-4.6-3.6-9.6-3.6-12.6H1160.1z"/>
	</g>
	<g>
		<path class="st0" d="M428.8,150.4h-19l-44.5-125h19.2L420,132.3l37.4-106.9h17.5L428.8,150.4z"/>
		<path class="st0" d="M526,25.4h78.5v14.7h-61.1v39h58.2v14.5h-58.2v41.6h62.5v15.2H526V25.4z"/>
		<path class="st0" d="M668,25.4h44.7c6.4,0,19.6,0,28.8,5.9c9.3,5.9,13.8,15.4,13.8,25.5c0,8.8-3.3,16.6-8.8,22.2
			c-5.4,5.4-10.9,7.1-14.7,8.1c11.9,3.1,17.3,8.5,19,24.1c1.8,14.7,3,25.5,7.8,39.3h-18.5c-2.8-8.3-4.5-23.5-5.7-33.1
			C732.3,99.2,728,94,707,94h-21.8v56.5H668V25.4z M684.8,79.3h27.4c1.9,0,11.8,0,16.4-2.8c2.4-1.4,8.5-5.9,8.5-16.3
			c0-20.3-18-20.3-24.9-20.3h-27.4V79.3z"/>
		<path class="st0" d="M843.5,150.4V40.1h-41.9V25.4h101v14.7h-41.9v110.3H843.5z"/>
		<path class="st0" d="M951.5,25.4h78.5v14.7h-61.1v39h58.2v14.5h-58.2v41.6h62.5v15.2h-79.8V25.4z"/>
		<path class="st0" d="M1109.3,25.4l33.8,48.2l33.8-48.2h20.9l-44.5,59.9l46.7,65.1h-21.8L1141,96.8l-38.1,53.7h-21l48.5-65.5
			l-43.3-59.6H1109.3z"/>
	</g>
</g>
<rect x="5.6" y="5.6" class="st0" width="290.7" height="276.2"/>
<g>
	<path class="st1" d="M302,287.5H0V0h302V287.5z M14.1,273.4h273.8V14.1H14.1V273.4z"/>
</g>
<g>
	<g>
		<path class="st1" d="M238.8,78.3l-85.2,166.5h-11.3l-80-166.5H238.8z M93.1,96.2l60.5,124.7h5l64-124.7H93.1z"/>
	</g>
	<g>
		<path class="st2" d="M210.7,198.2h6.4v40.8h21.7v5.7h-28.1V198.2z"/>
	</g>
	<g>
		<path class="st1" d="M208.2,52.2H91.3c-1.8,0-3.2-1.4-3.2-3.2s1.4-3.2,3.2-3.2h116.9c1.8,0,3.2,1.4,3.2,3.2S210,52.2,208.2,52.2z"
			/>
	</g>
	<g>
		<path class="st1" d="M200.8,63.6c-1.8,0-3.2-1.4-3.2-3.2c0-2.2,1.5-6.4,10.7-11.4c-5.4-2.9-10.7-7-10.7-11.4
			c0-1.8,1.4-3.2,3.2-3.2c1.7,0,3.2,1.4,3.2,3.1c0.5,1.7,6.8,5.8,13,8.5l6.8,2.9l-6.8,2.9c-6.3,2.7-12.4,6.8-13,8.5
			C203.9,62.2,202.5,63.6,200.8,63.6z"/>
	</g>
</g>
</svg>
