<?xml version="1.0" encoding="UTF-8" standalone="no"?>
<svg
   xmlns:dc="http://purl.org/dc/elements/1.1/"
   xmlns:cc="http://creativecommons.org/ns#"
   xmlns:rdf="http://www.w3.org/1999/02/22-rdf-syntax-ns#"
   xmlns:svg="http://www.w3.org/2000/svg"
   xmlns="http://www.w3.org/2000/svg"
   xmlns:sodipodi="http://sodipodi.sourceforge.net/DTD/sodipodi-0.dtd"
   xmlns:inkscape="http://www.inkscape.org/namespaces/inkscape"
   version="1.0"
   width="280.47122pt"
   height="272.92984pt"
   viewBox="0 0 280.47122 272.92984"
   preserveAspectRatio="xMidYMid meet"
   id="svg2"
   inkscape:version="0.91 r13725"
   sodipodi:docname="grad-icon.svg">
  <metadata
     id="metadata12">
    <rdf:RDF>
      <cc:Work
         rdf:about="">
        <dc:format>image/svg+xml</dc:format>
        <dc:type
           rdf:resource="http://purl.org/dc/dcmitype/StillImage" />
        <dc:title></dc:title>
      </cc:Work>
    </rdf:RDF>
  </metadata>
  <defs
     id="defs10" />
  <sodipodi:namedview
     pagecolor="#ffffff"
     bordercolor="#555555"
     borderopacity="1"
     objecttolerance="10"
     gridtolerance="10"
     guidetolerance="10"
     inkscape:pageopacity="0"
     inkscape:pageshadow="2"
     inkscape:window-width="443"
     inkscape:window-height="405"
     id="namedview8"
     showgrid="false"
     inkscape:zoom="0.53333333"
     inkscape:cx="21.601869"
     inkscape:cy="201.09599"
     inkscape:window-x="208"
     inkscape:window-y="208"
     inkscape:window-maximized="0"
     inkscape:current-layer="svg2"
     fit-margin-top="0"
     fit-margin-left="0"
     fit-margin-right="0"
     fit-margin-bottom="0" />
  <g
     transform="matrix(0.08538676,0,0,-0.08538676,-18.214826,286.69684)"
     id="g4"
     style="fill:#e46363;stroke:none">
    <path
       d="m 222,3351 c -9,-5 -11,-18 -6,-37 3,-16 298,-615 655,-1331 357,-717 649,-1305 649,-1308 0,-3 11,-23 25,-45 14,-22 25,-44 25,-50 0,-6 11,-28 25,-50 14,-22 25,-44 25,-50 0,-6 11,-28 25,-50 14,-22 25,-44 25,-50 0,-6 11,-28 25,-50 14,-22 25,-44 25,-49 0,-6 12,-30 27,-55 31,-51 79,-73 138,-62 50,10 71,35 133,163 30,59 61,122 70,138 8,17 19,37 22,45 4,8 15,31 25,50 10,19 22,42 25,50 4,8 15,31 25,50 10,19 22,42 25,50 4,8 15,31 25,50 10,19 22,42 25,50 4,8 15,31 25,50 10,19 22,42 25,50 4,8 15,31 25,50 10,19 22,42 25,50 4,8 15,31 25,50 10,19 22,42 25,50 4,8 15,31 25,50 10,19 22,42 25,50 4,8 15,31 25,50 10,19 22,42 25,50 4,8 15,31 25,50 10,19 22,42 25,50 4,8 15,31 25,50 10,19 22,42 25,50 4,8 15,31 25,50 10,19 22,42 25,50 4,8 15,31 25,50 10,19 22,42 25,50 4,8 15,31 25,50 10,19 22,43 27,53 4,9 12,25 16,35 5,9 16,31 25,47 9,17 169,338 357,715 261,524 340,691 338,715 l -3,30 -1630,2 c -896,2 -1636,-1 -1643,-6 z m 2979,-319 c 4,-4 -260,-545 -587,-1202 C 1933,463 2006,605 1992,605 1979,605 770,3020 776,3034 c 5,13 2413,11 2425,-2 z"
       id="path6"
       inkscape:connector-curvature="0" />
  </g>
</svg>
